<svg width="1920" height="1080" viewBox="0 0 1920 1080" fill="none" xmlns="http://www.w3.org/2000/svg">
<path opacity="0.2" fill-rule="evenodd" clip-rule="evenodd" d="M-53.6068 814.708C-2.32299 776.764 52.7428 741.673 118.104 750.815C188.327 760.636 250.678 802.914 291.639 862.995C337.949 930.923 372.313 1012.94 347.69 1087.57C321.924 1165.66 248.331 1213.09 169.123 1234.32C89.2631 1255.73 1.04873 1249.44 -69.6061 1199.45C-141.522 1148.57 -194.578 1065.19 -191.016 979.523C-187.797 902.113 -114.057 859.433 -53.6068 814.708Z" fill="#EEA4A7"/>
<path fill-rule="evenodd" clip-rule="evenodd" d="M863.129 -73.9978C853.758 30.8651 873.91 155.867 996.025 222.958C1117 289.421 1293.53 241.489 1438.78 277.987C1581.84 313.937 1649.12 489.403 1800.33 490.995C2004.4 506.777 2099.92 346.258 2159.48 253.118C2216.21 164.42 2117.38 66.3065 2098.07 -30.8555C2082.84 -107.494 2111.18 -186.274 2058.42 -255.48C2001.38 -330.287 1909.55 -392.949 1796.17 -426.844C1678.92 -461.895 1549.95 -458.406 1425.32 -444.739C1287.61 -429.638 1145.91 -410.052 1046.75 -344.661C939.542 -273.959 872.294 -176.538 863.129 -73.9978Z" fill="#F9F4F5"/>
<path fill-rule="evenodd" clip-rule="evenodd" d="M34.2211 1133.16C30.8818 1171.45 37.8862 1217.07 80.6764 1241.5C123.066 1265.7 187.137 1236.29 238.055 1249.54C288.208 1262.59 311.468 1314.86 364.493 1315.36C417.461 1315.87 467.733 1285.96 488.67 1251.93C508.607 1219.52 473.997 1183.75 467.275 1148.29C461.973 1120.32 471.951 1091.54 453.483 1066.31C433.52 1039.03 401.346 1016.2 361.602 1003.88C320.501 991.142 275.271 992.48 231.56 997.532C183.26 1003.11 133.558 1010.34 98.752 1034.26C61.1184 1060.12 37.4865 1095.72 34.2211 1133.16Z" fill="#F9F4F5"/>
<g opacity="0.6" filter="url(#filter0_f_1602_10000)">
<path fill-rule="evenodd" clip-rule="evenodd" d="M1042.21 645.436C1083.19 616.466 1122.96 583.967 1132.22 532.888C1142.17 478.009 1125.94 421.02 1091.14 375.628C1051.79 324.307 998.98 278.442 937.167 278.464C872.484 278.486 818.937 321.789 783.571 375.734C747.915 430.123 730.899 497.575 750.849 562.666C771.154 628.919 820.383 689.083 885.257 707.512C943.879 724.165 993.918 679.585 1042.21 645.436Z" fill="#ED6960"/>
</g>
<defs>
<filter id="filter0_f_1602_10000" x="-57.6281" y="-521.536" width="1992.74" height="2032.65" filterUnits="userSpaceOnUse" color-interpolation-filters="sRGB">
<feFlood flood-opacity="0" result="BackgroundImageFix"/>
<feBlend mode="normal" in="SourceGraphic" in2="BackgroundImageFix" result="shape"/>
<feGaussianBlur stdDeviation="400" result="effect1_foregroundBlur_1602_10000"/>
</filter>
</defs>
</svg>
