<svg width="462" height="87" viewBox="0 0 462 87" fill="none" xmlns="http://www.w3.org/2000/svg">
<path fill-rule="evenodd" clip-rule="evenodd" d="M1.22112 140.16C-2.11818 178.447 4.88623 224.071 47.6764 248.502C90.0664 272.704 154.137 243.288 205.055 256.539C255.208 269.591 278.468 321.858 331.493 322.363C384.461 322.868 434.733 292.959 455.67 258.927C475.607 226.518 440.997 190.75 434.275 155.289C428.973 127.318 438.951 98.5441 420.483 73.3059C400.52 46.0251 368.346 23.1955 328.602 10.8787C287.501 -1.85838 242.271 -0.519615 198.56 4.53224C150.26 10.1146 100.558 17.3359 65.752 41.2577C28.1184 67.1226 4.48646 102.722 1.22112 140.16Z" fill="#F9F4F5"/>
</svg>
