<svg width="1059" height="493" viewBox="0 0 1059 493" fill="none" xmlns="http://www.w3.org/2000/svg">
<path fill-rule="evenodd" clip-rule="evenodd" d="M2.12936 -73.9978C-7.24244 30.865 12.9103 155.867 135.025 222.958C255.998 289.421 432.529 241.489 577.776 277.987C720.841 313.937 788.124 489.403 939.328 490.995C1143.4 506.777 1238.92 346.258 1298.48 253.118C1355.21 164.42 1256.38 66.3065 1237.07 -30.8555C1221.84 -107.494 1250.18 -186.274 1197.42 -255.48C1140.38 -330.287 1048.55 -392.949 935.167 -426.844C817.916 -461.895 688.945 -458.406 564.322 -444.739C426.612 -429.638 284.913 -410.052 185.754 -344.661C78.5417 -273.959 11.2936 -176.538 2.12936 -73.9978Z" fill="#F9F4F5"/>
</svg>
